<svg width="1280" height="640" viewBox="0 0 1280 640" fill="none" xmlns="http://www.w3.org/2000/svg">
  <!-- Background -->
  <rect width="1280" height="640" fill="#1F2937"/>
  
  <!-- Gradient background -->
  <rect width="1280" height="640" fill="url(#gradient)"/>
  
  <!-- CS Letters - centered and scaled -->
  <g transform="translate(480,160) scale(8)">
    <path d="M12 20.5C10.5 20.5 9.5 20 8.5 19C7.5 18 7 16.8333 7 15.5C7 14.1667 7.5 13 8.5 12C9.5 11 10.6667 10.5 12 10.5C13 10.5 13.8333 10.75 14.5 11.25C15.1667 11.75 15.6667 12.4167 16 13.25L14 14.25C13.8333 13.75 13.5833 13.375 13.25 13.125C12.9167 12.875 12.5 12.75 12 12.75C11.1667 12.75 10.5 13.0417 10 13.625C9.5 14.2083 9.25 14.8333 9.25 15.5C9.25 16.1667 9.5 16.7917 10 17.375C10.5 17.9583 11.1667 18.25 12 18.25C12.5 18.25 12.9167 18.125 13.25 17.875C13.5833 17.625 13.8333 17.25 14 16.75L16 17.75C15.6667 18.5833 15.1667 19.25 14.5 19.75C13.8333 20.25 13 20.5 12 20.5Z" fill="white"/>
    <path d="M23.5 20.5H18.5V18.5H21.5V16.5H19C18.1667 16.5 17.5 16.25 17 15.75C16.5 15.25 16.25 14.5833 16.25 13.75C16.25 12.9167 16.5 12.25 17 11.75C17.5 11.25 18.1667 11 19 11H23.5V13H20V14.75H22.5C23.3333 14.75 24 15 24.5 15.5C25 16 25.25 16.6667 25.25 17.5C25.25 18.3333 25 19 24.5 19.5C24 20 23.3333 20.5 23.5 20.5Z" fill="white"/>
  </g>
  
  <!-- Gradient definition -->
  <defs>
    <linearGradient id="gradient" x1="0" y1="0" x2="1280" y2="640" gradientUnits="userSpaceOnUse">
      <stop offset="0%" stop-color="#2D3748"/>
      <stop offset="100%" stop-color="#9F7AEA"/>
    </linearGradient>
  </defs>
</svg> 